<svg width="54" height="98" viewBox="0 0 54 98" fill="none" xmlns="http://www.w3.org/2000/svg">
<mask id="path-1-inside-1_4676_8415" fill="white">
<path d="M0 0H54V97.6832H0V0Z"/>
</mask>
<path d="M0 0H54V97.6832H0V0Z" fill="white"/>
<path d="M24 49.8416C24.5523 49.8416 25 49.3938 25 48.8416C25 48.2893 24.5523 47.8416 24 47.8416C23.4477 47.8416 23 48.2893 23 48.8416C23 49.3938 23.4477 49.8416 24 49.8416Z" stroke="#5F6C86" stroke-width="2" stroke-linecap="round" stroke-linejoin="round"/>
<path d="M24 42.8416C24.5523 42.8416 25 42.3938 25 41.8416C25 41.2893 24.5523 40.8416 24 40.8416C23.4477 40.8416 23 41.2893 23 41.8416C23 42.3938 23.4477 42.8416 24 42.8416Z" stroke="#5F6C86" stroke-width="2" stroke-linecap="round" stroke-linejoin="round"/>
<path d="M24 56.8416C24.5523 56.8416 25 56.3938 25 55.8416C25 55.2893 24.5523 54.8416 24 54.8416C23.4477 54.8416 23 55.2893 23 55.8416C23 56.3938 23.4477 56.8416 24 56.8416Z" stroke="#5F6C86" stroke-width="2" stroke-linecap="round" stroke-linejoin="round"/>
<path d="M0 0H54H0ZM54 98.6832H0V96.6832H54V98.6832ZM0 97.6832V0V97.6832ZM54 0V97.6832V0Z" fill="#E5E8EB" mask="url(#path-1-inside-1_4676_8415)"/>
</svg>
