<svg width="20" height="20" viewBox="0 0 20 20" fill="none" xmlns="http://www.w3.org/2000/svg">
<path d="M9.99984 1.66669C8.35166 1.66669 6.7405 2.15543 5.37009 3.07111C3.99968 3.98679 2.93158 5.28827 2.30084 6.81099C1.67011 8.33371 1.50509 10.0093 1.82663 11.6258C2.14817 13.2423 2.94185 14.7271 4.10728 15.8926C5.27272 17.058 6.75758 17.8517 8.37409 18.1732C9.9906 18.4948 11.6662 18.3297 13.1889 17.699C14.7116 17.0683 16.0131 16.0002 16.9288 14.6298C17.8444 13.2594 18.3332 11.6482 18.3332 10C18.3307 7.79064 17.452 5.67245 15.8897 4.11018C14.3274 2.54791 12.2092 1.66914 9.99984 1.66669V1.66669ZM9.99984 16.6667C8.6813 16.6667 7.39237 16.2757 6.29604 15.5432C5.19971 14.8106 4.34523 13.7694 3.84064 12.5512C3.33606 11.3331 3.20404 9.99263 3.46127 8.69942C3.71851 7.40621 4.35345 6.21833 5.2858 5.28598C6.21815 4.35363 7.40603 3.71869 8.69924 3.46145C9.99245 3.20422 11.3329 3.33624 12.5511 3.84082C13.7692 4.34541 14.8104 5.19989 15.543 6.29622C16.2755 7.39255 16.6665 8.68148 16.6665 10C16.6645 11.7675 15.9615 13.462 14.7117 14.7118C13.4618 15.9616 11.7673 16.6647 9.99984 16.6667V16.6667ZM9.99984 9.58335C9.77883 9.58335 9.56687 9.67115 9.41059 9.82743C9.25431 9.98371 9.16651 10.1957 9.16651 10.4167V12.9167C9.16651 13.1377 9.25431 13.3497 9.41059 13.5059C9.56687 13.6622 9.77883 13.75 9.99984 13.75C10.2209 13.75 10.4328 13.6622 10.5891 13.5059C10.7454 13.3497 10.8332 13.1377 10.8332 12.9167V10.4167C10.8332 10.1957 10.7454 9.98371 10.5891 9.82743C10.4328 9.67115 10.2209 9.58335 9.99984 9.58335ZM9.99984 6.25002C9.79382 6.25002 9.59242 6.31111 9.42112 6.42557C9.24982 6.54003 9.11631 6.70272 9.03747 6.89306C8.95863 7.0834 8.938 7.29284 8.97819 7.49491C9.01838 7.69697 9.11759 7.88258 9.26327 8.02826C9.40895 8.17394 9.59456 8.27315 9.79662 8.31334C9.99869 8.35353 10.2081 8.3329 10.3985 8.25406C10.5888 8.17522 10.7515 8.04171 10.866 7.87041C10.9804 7.69911 11.0415 7.49771 11.0415 7.29169C11.0415 7.01542 10.9318 6.75047 10.7364 6.55512C10.5411 6.35977 10.2761 6.25002 9.99984 6.25002V6.25002Z" fill="black"/>
</svg>
